<?xml version="1.0" encoding="UTF-8" standalone="no"?>
<svg
   viewBox="0 0 24 24"
   width="24"
   height="24"
   fill="currentColor"
   class="bili-video-card__info--owner__up"
   version="1.1"
   id="svg3"
   sodipodi:docname="danmakus.svg"
   inkscape:version="1.3.2 (091e20e, 2023-11-25, custom)"
   xmlns:inkscape="http://www.inkscape.org/namespaces/inkscape"
   xmlns:sodipodi="http://sodipodi.sourceforge.net/DTD/sodipodi-0.dtd"
   xmlns="http://www.w3.org/2000/svg"
   xmlns:svg="http://www.w3.org/2000/svg">
  <defs
     id="defs3" />
  <sodipodi:namedview
     id="namedview3"
     pagecolor="#ffffff"
     bordercolor="#000000"
     borderopacity="0.25"
     inkscape:showpageshadow="2"
     inkscape:pageopacity="0.0"
     inkscape:pagecheckerboard="0"
     inkscape:deskcolor="#d1d1d1"
     inkscape:zoom="16"
     inkscape:cx="25.8125"
     inkscape:cy="9.90625"
     inkscape:window-width="1920"
     inkscape:window-height="1017"
     inkscape:window-x="-8"
     inkscape:window-y="-8"
     inkscape:window-maximized="1"
     inkscape:current-layer="svg3"
     showguides="true">
    <sodipodi:guide
       position="12,29.257812"
       orientation="1,0"
       id="guide2"
       inkscape:locked="false" />
  </sodipodi:namedview>
  <path
     d="M12 4.99805C9.48178 4.99805 7.283 5.12616 5.73089 5.25202C4.65221 5.33949 3.81611 6.16352 3.72 7.23254C3.60607 8.4998 3.5 10.171 3.5 11.998C3.5 13.8251 3.60607 15.4963 3.72 16.76355C3.81611 17.83255 4.65221 18.6566 5.73089 18.7441C7.283 18.8699 9.48178 18.998 12 18.998C14.5185 18.998 16.7174 18.8699 18.2696 18.74405C19.3481 18.65655 20.184 17.8328 20.2801 16.76405C20.394 15.4973 20.5 13.82645 20.5 11.998C20.5 10.16965 20.394 8.49877 20.2801 7.23205C20.184 6.1633 19.3481 5.33952 18.2696 5.25205C16.7174 5.12618 14.5185 4.99805 12 4.99805zM5.60965 3.75693C7.19232 3.62859 9.43258 3.49805 12 3.49805C14.5677 3.49805 16.8081 3.62861 18.3908 3.75696C20.1881 3.90272 21.6118 5.29278 21.7741 7.09773C21.8909 8.3969 22 10.11405 22 11.998C22 13.88205 21.8909 15.5992 21.7741 16.8984C21.6118 18.7033 20.1881 20.09335 18.3908 20.23915C16.8081 20.3675 14.5677 20.498 12 20.498C9.43258 20.498 7.19232 20.3675 5.60965 20.2392C3.81206 20.0934 2.38831 18.70295 2.22603 16.8979C2.10918 15.5982 2 13.8808 2 11.998C2 10.1153 2.10918 8.39787 2.22603 7.09823C2.38831 5.29312 3.81206 3.90269 5.60965 3.75693z"
     fill="currentColor"
     id="path3" />
  <circle
     style="fill-opacity:1"
     id="path1"
     r="1"
     cy="10.175"
     cx="6.9120002" />
  <rect
     style="fill-opacity:1;stroke-width:1.16662"
     id="rect1"
     width="7.3429999"
     height="2"
     x="9.125"
     y="9.1906595"
     ry="1" />
  <ellipse
     style="fill-opacity:1"
     id="path1-4"
     cy="14.081"
     cx="8.4440002"
     rx="1.0000001"
     ry="1" />
  <rect
     style="fill-opacity:1;stroke-width:1.16662"
     id="rect1-3"
     width="7.3430004"
     height="2"
     x="10.657"
     y="13.09666"
     ry="1" />
</svg>
