<?xml version="1.0" encoding="UTF-8" standalone="no"?>
<svg
   t="1723545961208"
   class="icon"
   viewBox="0 0 1024 1024"
   version="1.1"
   p-id="14535"
   width="64"
   height="64"
   id="svg1"
   sodipodi:docname="like.svg"
   inkscape:version="1.3.2 (091e20e, 2023-11-25, custom)"
   xmlns:inkscape="http://www.inkscape.org/namespaces/inkscape"
   xmlns:sodipodi="http://sodipodi.sourceforge.net/DTD/sodipodi-0.dtd"
   xmlns="http://www.w3.org/2000/svg"
   xmlns:svg="http://www.w3.org/2000/svg">
  <defs
     id="defs1" />
  <sodipodi:namedview
     id="namedview1"
     pagecolor="#ffffff"
     bordercolor="#000000"
     borderopacity="0.25"
     inkscape:showpageshadow="2"
     inkscape:pageopacity="0.0"
     inkscape:pagecheckerboard="0"
     inkscape:deskcolor="#d1d1d1"
     inkscape:zoom="12.828125"
     inkscape:cx="31.961023"
     inkscape:cy="32"
     inkscape:window-width="1920"
     inkscape:window-height="1017"
     inkscape:window-x="-8"
     inkscape:window-y="-8"
     inkscape:window-maximized="1"
     inkscape:current-layer="svg1" />
  <path
     d="m 812.2,360.708 -124.5,-0.6 c 5.6,-18.1 13.2,-45.7 17.2,-73.7 4.6,-32.1 5.7,-58.9 3,-77.6 -4.4,-31 -17.5,-57.9 -37.8,-78 -22.1,-21.9 -50.7,-33.4 -82.6,-33.4 h -1.6 c -2,0.1 -19.7,1.2 -39,8.4 -30.2,11.3 -49.6,32.4 -54.7,59.3 l -0.6,3.1 0.1,3.2 c 0.9,34.2 -8.9,95.1 -15.7,117.9 -1.6,5.5 -13.6,24.1 -33.9,42.4 -20,18 -40.5,28.8 -55,28.8 h -15.8 c -6.4,-14.2 -20.8,-24.2 -37.4,-24.2 H 147.4 c -22.6,0 -41,18.4 -41,41 v 478.2 c 0,22.6 18.4,41 41,41 H 334 c 13.8,0 26,-6.8 33.4,-17.3 h 359.4 c 64.8,0 116,-49.2 130.4,-125.3 10.2,-53.9 59.3,-279.3 59.8,-281.6 l 0.7,-3.2 v -3.2 c -0.1,-57.9 -47.3,-105.2 -105.5,-105.2 z m -647.3,34.3 h 151.4 c -0.5,2.5 -0.7,5 -0.7,7.6 v 435.5 H 164.9 Z m 633.3,348 c -7,37 -29.5,76.5 -71.5,76.5 H 375.6 v -398.9 h 11.5 c 38.1,0 72.8,-24.1 95.2,-44.3 25.3,-22.8 45.4,-50.2 51.2,-69.7 7.9,-26.4 18.5,-89.8 18.2,-132.3 4.7,-11.8 29.2,-16.2 36.8,-16.9 38,0.5 55.9,31.2 60.1,59.8 0.9,6 2.3,24 -3,60.5 -5.9,40.6 -21,82.3 -21.1,82.7 -4.9,13.5 -3,28.5 5.1,40.3 8.1,11.8 21.5,19 35.9,19.1 l 146.6,0.7 h 0.2 c 24.1,0 44,18.9 45.4,42.6 -6.7,30.3 -49.7,228.2 -59.5,279.9 z"
     fill="currentColor"
     p-id="14536"
     id="path1" />
</svg>
