<?xml version="1.0" encoding="UTF-8" standalone="no"?>
<svg
   viewBox="0 0 24 24"
   width="24"
   height="24"
   fill="currentColor"
   class="bili-video-card__info--owner__up"
   version="1.1"
   id="svg3"
   sodipodi:docname="likes.svg"
   inkscape:version="1.3.2 (091e20e, 2023-11-25, custom)"
   xmlns:inkscape="http://www.inkscape.org/namespaces/inkscape"
   xmlns:sodipodi="http://sodipodi.sourceforge.net/DTD/sodipodi-0.dtd"
   xmlns="http://www.w3.org/2000/svg"
   xmlns:svg="http://www.w3.org/2000/svg">
  <defs
     id="defs3" />
  <sodipodi:namedview
     id="namedview3"
     pagecolor="#ffffff"
     bordercolor="#000000"
     borderopacity="0.25"
     inkscape:showpageshadow="2"
     inkscape:pageopacity="0.0"
     inkscape:pagecheckerboard="0"
     inkscape:deskcolor="#d1d1d1"
     inkscape:zoom="16"
     inkscape:cx="14.1875"
     inkscape:cy="13.90625"
     inkscape:window-width="1920"
     inkscape:window-height="1017"
     inkscape:window-x="-8"
     inkscape:window-y="-8"
     inkscape:window-maximized="1"
     inkscape:current-layer="svg3"
     showguides="true">
    <sodipodi:guide
       position="-0.6640625,12.003906"
       orientation="0,-1"
       id="guide1"
       inkscape:locked="false" />
    <sodipodi:guide
       position="12,29.257812"
       orientation="1,0"
       id="guide2"
       inkscape:locked="false" />
  </sodipodi:namedview>
  <path
     d="M 19.390106,9.262454 H 15.382678 C 15.085832,9.212974 14.986885,8.916134 14.937408,8.76771 V 5.156078 c 0,-0.9894879 -0.791588,-1.781078 -1.781077,-1.781078 -0.89054,0 -1.632657,0.6926417 -1.78108,1.5337061 C 10.831032,8.32244 8.7531069,9.460352 7.4172993,9.806672 c 0.04948,0.148424 0.04948,0.247373 0.04948,0.346323 v 9.598033 c 0,0.197899 -0.04948,0.395796 -0.1484238,0.593694 h 9.6969805 c 0.940015,-0.197898 1.583181,-0.544218 2.028452,-1.484233 l 2.028451,-7.124315 C 21.468031,10.449841 20.824863,9.21298 19.390106,9.262454 Z M 6.6257085,19.800504 v -9.647509 c 0,-0.296848 -0.3957953,-0.54422 -0.8410652,-0.54422 H 4.4488342 C 3.7561926,9.608775 3.1625,10.202468 3.1625,10.89511 v 8.113803 c 0,0.742115 0.5442182,1.335809 1.2863342,1.335809 h 1.3358091 c 0.4452699,0 0.8410652,-0.247371 0.8410652,-0.544218 z m 0,0"
     fill="currentColor"
     p-id="12180"
     id="path1"
     style="stroke-width:0.0217418" />
  <path
     d="m 12,4.99805 c -2.51822,0 -4.717,0.12811 -6.26911,0.25397 C 4.65221,5.33949 3.81611,6.16352 3.72,7.23254 3.60607,8.4998 3.5,10.171 3.5,11.998 c 0,1.8271 0.10607,3.4983 0.22,4.76555 0.09611,1.069 0.93221,1.89305 2.01089,1.98055 C 7.283,18.8699 9.48178,18.998 12,18.998 c 2.5185,0 4.7174,-0.1281 6.2696,-0.25395 1.0785,-0.0875 1.9144,-0.91125 2.0105,-1.98 C 20.394,15.4973 20.5,13.82645 20.5,11.998 20.5,10.16965 20.394,8.49877 20.2801,7.23205 20.184,6.1633 19.3481,5.33952 18.2696,5.25205 16.7174,5.12618 14.5185,4.99805 12,4.99805 Z M 5.60965,3.75693 C 7.19232,3.62859 9.43258,3.49805 12,3.49805 c 2.5677,0 4.8081,0.13056 6.3908,0.25891 1.7973,0.14576 3.221,1.53582 3.3833,3.34077 C 21.8909,8.3969 22,10.11405 22,11.998 c 0,1.88405 -0.1091,3.6012 -0.2259,4.9004 -0.1623,1.8049 -1.586,3.19495 -3.3833,3.34075 C 16.8081,20.3675 14.5677,20.498 12,20.498 9.43258,20.498 7.19232,20.3675 5.60965,20.2392 3.81206,20.0934 2.38831,18.70295 2.22603,16.8979 2.10918,15.5982 2,13.8808 2,11.998 2,10.1153 2.10918,8.39787 2.22603,7.09823 2.38831,5.29312 3.81206,3.90269 5.60965,3.75693 Z"
     fill="currentColor"
     id="path3"
     style="display:none;fill:#8b0000;fill-opacity:0.496416" />
</svg>
